<?xml version="1.0" encoding="UTF-8"?>
<svg id="Layer_1" xmlns="http://www.w3.org/2000/svg" version="1.1" viewBox="0 0 1134 1134">
  <!-- Generator: Adobe Illustrator 29.6.1, SVG Export Plug-In . SVG Version: 2.1.1 Build 9)  -->
  <defs>
    <style>
      .st0 {
        fill: #c61d23;
      }
    </style>
  </defs>
  <g id="BottomRight">
    <path class="st0" d="M703,828.12v101.55c8.57,9.34,22.48,22.98,42.11,35.86,27.53,18.06,42.67,19.12,62.69,33.93,13.16,9.74,30.26,26.78,43.44,58.24,10.13-5.6,20.88-12.05,32.01-19.49,10.77-7.2,20.55-14.42,29.36-21.42-18.99-53.05-61.38-86.82-87.84-100.11-16.55-8.31-29.4-10.84-51.26-23.74-34.08-20.12-56.56-45.7-70.51-64.82Z"/>
    <path class="st0" d="M703,703v50.08c18.51,50.1,43.23,75.8,64.17,92.33,38.33,30.25,54.54,34.55,98.35,55.56,33.43,16.03,64.6,60.5,70.74,96.37,10.43-8.91,21.27-18.8,32.31-29.72,10-9.91,19.14-19.65,27.46-29.08-14.97-35.13-33.31-57.54-46.52-71.08-52.46-53.74-105.79-51.37-150.24-106.94-17.53-21.92-26.43-43.79-31.02-57.51"/>
    <path class="st0" d="M809.61,703c7.34,15.22,20.03,36.87,41.68,56.59,34.92,31.8,57.39,26.2,90.14,48.57,22.33,15.26,59.45,46.69,75.6,105.17,8.8-10.86,18.05-23.44,27.14-37.8,7.89-12.46,14.49-24.42,20.03-35.54-4.22-10.03-11.64-24.97-24.39-40.4-19.39-23.47-41.41-36.38-54.22-43.74-24.25-13.93-32.75-13.07-54.18-28.29-12.87-9.15-22.23-18.28-28.11-24.55"/>
  </g>
  <g id="BottomLeft">
    <path class="st0" d="M431,828.12v101.55c-8.57,9.34-22.48,22.98-42.11,35.86-27.53,18.06-42.67,19.12-62.69,33.93-13.16,9.74-30.26,26.78-43.44,58.24-10.13-5.6-20.88-12.05-32.01-19.49-10.77-7.2-20.55-14.42-29.36-21.42,18.99-53.05,61.38-86.82,87.84-100.11,16.55-8.31,29.4-10.84,51.26-23.74,34.08-20.12,56.56-45.7,70.51-64.82Z"/>
    <path class="st0" d="M431,703v50.08c-18.51,50.1-43.23,75.8-64.17,92.33-38.33,30.25-54.54,34.55-98.35,55.56-33.43,16.03-64.6,60.5-70.74,96.37-10.43-8.91-21.27-18.8-32.31-29.72-10-9.91-19.14-19.65-27.46-29.08,14.97-35.13,33.31-57.54,46.52-71.08,52.46-53.74,105.79-51.37,150.24-106.94,17.53-21.92,26.43-43.79,31.02-57.51"/>
    <path class="st0" d="M324.39,703c-7.34,15.22-20.03,36.87-41.68,56.59-34.92,31.8-57.39,26.2-90.14,48.57-22.33,15.26-59.45,46.69-75.6,105.17-8.8-10.86-18.05-23.44-27.14-37.8-7.89-12.46-14.49-24.42-20.03-35.54,4.22-10.03,11.64-24.97,24.39-40.4,19.39-23.47,41.41-36.38,54.22-43.74,24.25-13.93,32.75-13.07,54.18-28.29,12.87-9.15,22.23-18.28,28.11-24.55"/>
  </g>
  <g id="TopRight">
    <path class="st0" d="M703,305.88v-101.55c8.57-9.34,22.48-22.98,42.11-35.86,27.53-18.06,42.67-19.12,62.69-33.93,13.16-9.74,30.26-26.78,43.44-58.24,10.13,5.6,20.88,12.05,32.01,19.49,10.77,7.2,20.55,14.42,29.36,21.42-18.99,53.05-61.38,86.82-87.84,100.11-16.55,8.31-29.4,10.84-51.26,23.74-34.08,20.12-56.56,45.7-70.51,64.82Z"/>
    <path class="st0" d="M703,431v-50.08c18.51-50.1,43.23-75.8,64.17-92.33,38.33-30.25,54.54-34.55,98.35-55.56,33.43-16.03,64.6-60.5,70.74-96.37,10.43,8.91,21.27,18.8,32.31,29.72,10,9.91,19.14,19.65,27.46,29.08-14.97,35.13-33.31,57.54-46.52,71.08-52.46,53.74-105.79,51.37-150.24,106.94-17.53,21.92-26.43,43.79-31.02,57.51"/>
    <path class="st0" d="M809.61,431c7.34-15.22,20.03-36.87,41.68-56.59,34.92-31.8,57.39-26.2,90.14-48.57,22.33-15.26,59.45-46.69,75.6-105.17,8.8,10.86,18.05,23.44,27.14,37.8,7.89,12.46,14.49,24.42,20.03,35.54-4.22,10.03-11.64,24.97-24.39,40.4-19.39,23.47-41.41,36.38-54.22,43.74-24.25,13.93-32.75,13.07-54.18,28.29-12.87,9.15-22.23,18.28-28.11,24.55"/>
  </g>
  <g id="TopLeft">
    <path class="st0" d="M431,305.88v-101.55c-8.57-9.34-22.48-22.98-42.11-35.86-27.53-18.06-42.67-19.12-62.69-33.93-13.16-9.74-30.26-26.78-43.44-58.24-10.13,5.6-20.88,12.05-32.01,19.49-10.77,7.2-20.55,14.42-29.36,21.42,18.99,53.05,61.38,86.82,87.84,100.11,16.55,8.31,29.4,10.84,51.26,23.74,34.08,20.12,56.56,45.7,70.51,64.82Z"/>
    <path class="st0" d="M431,431v-50.08c-18.51-50.1-43.23-75.8-64.17-92.33-38.33-30.25-54.54-34.55-98.35-55.56-33.43-16.03-64.6-60.5-70.74-96.37-10.43,8.91-21.27,18.8-32.31,29.72-10,9.91-19.14,19.65-27.46,29.08,14.97,35.13,33.31,57.54,46.52,71.08,52.46,53.74,105.79,51.37,150.24,106.94,17.53,21.92,26.43,43.79,31.02,57.51"/>
    <path class="st0" d="M324.39,431c-7.34-15.22-20.03-36.87-41.68-56.59-34.92-31.8-57.39-26.2-90.14-48.57-22.33-15.26-59.45-46.69-75.6-105.17-8.8,10.86-18.05,23.44-27.14,37.8-7.89,12.46-14.49,24.42-20.03,35.54,4.22,10.03,11.64,24.97,24.39,40.4,19.39,23.47,41.41,36.38,54.22,43.74,24.25,13.93,32.75,13.07,54.18,28.29,12.87,9.15,22.23,18.28,28.11,24.55"/>
  </g>
  <g id="Cross">
    <rect class="st0" x="466" y="0" width="202" height="1134"/>
    <rect class="st0" x="466" y="0" width="202" height="1134" transform="translate(0 1134) rotate(-90)"/>
  </g>
</svg>