<svg width="242" height="50" viewBox="0 0 242 50" fill="none" xmlns="http://www.w3.org/2000/svg">
<path d="M65.6768 18.21L68.7598 19.1875C68.2871 20.9062 67.4993 22.1846 66.3965 23.0225C65.3008 23.8532 63.9079 24.2686 62.2178 24.2686C60.1266 24.2686 58.4079 23.556 57.0615 22.1309C55.7152 20.6986 55.042 18.7435 55.042 16.2656C55.042 13.6445 55.7188 11.6107 57.0723 10.1641C58.4258 8.71029 60.2054 7.9834 62.4111 7.9834C64.3376 7.9834 65.9023 8.55273 67.1055 9.69141C67.8216 10.3646 68.3587 11.3314 68.7168 12.5918L65.5693 13.3438C65.3831 12.5273 64.9928 11.8828 64.3984 11.4102C63.8112 10.9375 63.0951 10.7012 62.25 10.7012C61.0827 10.7012 60.1338 11.1201 59.4033 11.958C58.68 12.7959 58.3184 14.153 58.3184 16.0293C58.3184 18.0202 58.6764 19.4382 59.3926 20.2832C60.1087 21.1283 61.0397 21.5508 62.1855 21.5508C63.0306 21.5508 63.7575 21.2822 64.3662 20.7451C64.9749 20.208 65.4118 19.363 65.6768 18.21ZM85.7002 24H82.2412L80.8662 20.4229H74.5713L73.2715 24H69.8984L76.0322 8.25195H79.3945L85.7002 24ZM79.8457 17.7695L77.6758 11.9258L75.5488 17.7695H79.8457ZM87.4082 24V8.25195H94.1006C95.7835 8.25195 97.0046 8.39518 97.7637 8.68164C98.5299 8.96094 99.1423 9.46224 99.6006 10.1855C100.059 10.9089 100.288 11.736 100.288 12.667C100.288 13.8486 99.9408 14.8262 99.2461 15.5996C98.5514 16.3659 97.513 16.8493 96.1309 17.0498C96.8184 17.4508 97.3841 17.8913 97.8281 18.3711C98.2793 18.8509 98.8844 19.7031 99.6436 20.9277L101.566 24H97.7637L95.4648 20.5732C94.6484 19.3486 94.0898 18.5788 93.7891 18.2637C93.4883 17.9414 93.1696 17.723 92.833 17.6084C92.4964 17.4867 91.9629 17.4258 91.2324 17.4258H90.5879V24H87.4082ZM90.5879 14.9121H92.9404C94.4658 14.9121 95.4183 14.8477 95.7979 14.7188C96.1774 14.5898 96.4746 14.3678 96.6895 14.0527C96.9043 13.7376 97.0117 13.3438 97.0117 12.8711C97.0117 12.3411 96.8685 11.915 96.582 11.5928C96.3027 11.2633 95.9053 11.0557 95.3896 10.9697C95.1318 10.9339 94.3584 10.916 93.0693 10.916H90.5879V14.9121ZM103.199 24V8.25195H106.379V24H103.199ZM112.964 24V10.916H108.291V8.25195H120.806V10.916H116.144V24H112.964ZM135.437 24H131.978L130.603 20.4229H124.308L123.008 24H119.635L125.769 8.25195H129.131L135.437 24ZM129.582 17.7695L127.412 11.9258L125.285 17.7695H129.582ZM136.328 18.876L139.422 18.5752C139.608 19.6136 139.984 20.3763 140.55 20.8633C141.123 21.3503 141.893 21.5938 142.859 21.5938C143.883 21.5938 144.653 21.3789 145.169 20.9492C145.692 20.5124 145.953 20.0039 145.953 19.4238C145.953 19.0514 145.842 18.7363 145.62 18.4785C145.405 18.2135 145.026 17.9844 144.481 17.791C144.109 17.6621 143.26 17.4329 141.936 17.1035C140.231 16.681 139.035 16.1618 138.348 15.5459C137.381 14.6794 136.897 13.623 136.897 12.377C136.897 11.5749 137.123 10.8265 137.574 10.1318C138.033 9.43001 138.688 8.89648 139.54 8.53125C140.399 8.16602 141.434 7.9834 142.645 7.9834C144.621 7.9834 146.107 8.41667 147.103 9.2832C148.105 10.1497 148.632 11.3063 148.682 12.7529L145.502 12.8926C145.366 12.0833 145.072 11.5033 144.621 11.1523C144.177 10.7943 143.507 10.6152 142.612 10.6152C141.688 10.6152 140.965 10.805 140.442 11.1846C140.106 11.4281 139.938 11.7539 139.938 12.1621C139.938 12.5345 140.095 12.8532 140.41 13.1182C140.811 13.4548 141.785 13.8057 143.332 14.1709C144.879 14.5361 146.021 14.9157 146.759 15.3096C147.504 15.6963 148.084 16.2298 148.499 16.9102C148.922 17.5833 149.133 18.4176 149.133 19.4131C149.133 20.3154 148.882 21.1605 148.381 21.9482C147.88 22.736 147.171 23.3232 146.254 23.71C145.337 24.0895 144.195 24.2793 142.827 24.2793C140.836 24.2793 139.307 23.821 138.24 22.9043C137.173 21.9805 136.536 20.6377 136.328 18.876ZM157.888 24V8.25195H162.646L165.504 18.9941L168.329 8.25195H173.099V24H170.145V11.6035L167.019 24H163.957L160.842 11.6035V24H157.888ZM190.458 24H186.999L185.624 20.4229H179.329L178.029 24H174.656L180.79 8.25195H184.152L190.458 24ZM184.604 17.7695L182.434 11.9258L180.307 17.7695H184.604ZM192.188 24V8.25195H195.281L201.727 18.7686V8.25195H204.681V24H201.49L195.142 13.7305V24H192.188ZM207.957 24V8.25195H211.137V24H207.957ZM214.263 24V8.38086H217.442V21.3467H225.349V24H214.263ZM241.827 24H238.368L236.993 20.4229H230.698L229.398 24H226.025L232.159 8.25195H235.521L241.827 24ZM235.973 17.7695L233.803 11.9258L231.676 17.7695H235.973Z" fill="#C61D23"/>
<path d="M97.93 28.358C98.2593 28.358 98.595 28.567 98.937 28.985C99.2917 29.403 99.469 29.7513 99.469 30.03C99.469 30.296 99.4183 30.429 99.317 30.429C99.2283 30.429 99.051 30.3847 98.785 30.296C98.519 30.1947 98.2783 30.144 98.063 30.144C97.569 30.144 96.9673 30.3973 96.258 30.904C95.5613 31.4107 94.8963 32.0377 94.263 32.785C93.6423 33.5323 93.1103 34.3873 92.667 35.35C92.2237 36.3 92.002 37.1233 92.002 37.82C92.002 38.5167 92.1793 39.0297 92.534 39.359C92.9013 39.6757 93.3763 39.834 93.959 39.834C94.5417 39.834 95.1433 39.7517 95.764 39.587C96.3847 39.4097 96.8913 39.2133 97.284 38.998C98.2973 38.4533 98.8547 38.181 98.956 38.181C99.1713 38.181 99.279 38.3267 99.279 38.618C99.279 38.8967 98.9877 39.2767 98.405 39.758C97.8223 40.2267 97.1003 40.651 96.239 41.031C95.3777 41.411 94.605 41.601 93.921 41.601C93.0343 41.601 92.1983 41.221 91.413 40.461C90.6277 39.6883 90.235 38.8397 90.235 37.915C90.235 36.7243 90.6213 35.3817 91.394 33.887C92.1793 32.3797 93.18 31.0813 94.396 29.992C95.6247 28.9027 96.8027 28.358 97.93 28.358ZM103.205 27.712C103.205 27.218 103.357 26.971 103.661 26.971C103.902 26.971 104.155 27.161 104.421 27.541C104.7 27.921 104.839 28.2883 104.839 28.643C104.839 29.4663 104.63 30.8723 104.212 32.861C103.807 34.837 103.275 36.813 102.616 38.789C103.883 36.4963 104.94 34.8433 105.789 33.83C106.65 32.804 107.385 32.291 107.993 32.291C108.322 32.291 108.702 32.576 109.133 33.146C109.576 33.716 109.798 34.286 109.798 34.856C109.798 35.426 109.64 36.281 109.323 37.421C108.538 40.2837 107.797 41.715 107.1 41.715C106.821 41.715 106.682 41.525 106.682 41.145C106.682 40.765 106.834 40.1253 107.138 39.226C107.809 37.2627 108.145 35.939 108.145 35.255C108.145 35.027 108.088 34.837 107.974 34.685C107.86 34.533 107.721 34.457 107.556 34.457C107.391 34.457 107.189 34.5457 106.948 34.723C106.707 34.9003 106.416 35.2107 106.074 35.654C105.643 36.224 105.194 36.8637 104.725 37.573C104.269 38.2823 103.99 38.713 103.889 38.865C103.8 39.0043 103.636 39.264 103.395 39.644C103.167 40.024 102.996 40.309 102.882 40.499C102.768 40.6763 102.629 40.8727 102.464 41.088C102.173 41.506 101.951 41.715 101.799 41.715C101.647 41.715 101.444 41.5757 101.191 41.297C100.938 41.0057 100.811 40.765 100.811 40.575C100.811 40.3723 100.881 39.9987 101.02 39.454C101.653 37.022 102.052 35.3563 102.217 34.457C102.876 31.1637 103.205 28.9153 103.205 27.712ZM116.204 32.291C116.774 32.291 117.299 32.5823 117.781 33.165C118.262 33.735 118.503 34.2543 118.503 34.723C118.503 35.179 118.344 35.6477 118.028 36.129C118.18 36.319 118.256 36.4837 118.256 36.623C118.256 36.9777 118.173 37.5857 118.009 38.447C117.857 39.3083 117.762 39.872 117.724 40.138C117.698 40.404 117.673 40.6193 117.648 40.784C117.622 40.936 117.591 41.088 117.553 41.24C117.502 41.5567 117.388 41.715 117.211 41.715C116.983 41.715 116.793 41.5187 116.641 41.126C116.501 40.7207 116.419 40.2013 116.394 39.568C115.266 40.9993 114.221 41.715 113.259 41.715C112.676 41.715 112.1 41.468 111.53 40.974C110.972 40.4673 110.694 39.948 110.694 39.416C110.694 38.656 110.972 37.7187 111.53 36.604C112.087 35.4767 112.809 34.476 113.696 33.602C114.582 32.728 115.418 32.291 116.204 32.291ZM117.078 35.635C117.078 34.457 116.843 33.868 116.375 33.868C115.881 33.868 115.304 34.2227 114.646 34.932C113.987 35.6287 113.43 36.4203 112.974 37.307C112.518 38.1937 112.29 38.8967 112.29 39.416C112.29 39.6313 112.378 39.8087 112.556 39.948C112.733 40.0747 112.942 40.138 113.183 40.138C113.778 40.138 114.449 39.739 115.197 38.941C115.944 38.1303 116.463 37.1487 116.755 35.996C116.793 35.806 116.9 35.692 117.078 35.654V35.635ZM121.196 34.609L121.139 33.184C121.139 32.5887 121.278 32.291 121.557 32.291C121.797 32.291 122.025 32.4493 122.241 32.766C122.469 33.07 122.583 33.4373 122.583 33.868C122.583 34.286 122.57 34.6027 122.545 34.818C123.647 33.146 124.692 32.31 125.68 32.31C126.3 32.31 126.611 32.462 126.611 32.766C126.611 32.918 126.541 33.0573 126.402 33.184C126.262 33.3107 126.041 33.4563 125.737 33.621C125.065 33.9123 124.495 34.362 124.027 34.97C123.571 35.5653 123.197 36.243 122.906 37.003C122.614 37.763 122.38 38.4027 122.203 38.922C122.038 39.4413 121.911 39.8467 121.823 40.138C121.734 40.4293 121.633 40.7143 121.519 40.993C121.316 41.4997 121.082 41.753 120.816 41.753C120.6 41.753 120.423 41.6327 120.284 41.392C120.157 41.1387 120.094 40.898 120.094 40.67C120.094 40.4293 120.201 39.9607 120.417 39.264C120.936 37.668 121.196 36.1163 121.196 34.609ZM128.778 29.593C128.778 29.3397 128.879 29.099 129.082 28.871C129.285 28.643 129.487 28.529 129.69 28.529C129.905 28.529 130.159 28.7887 130.45 29.308C130.741 29.8147 130.887 30.239 130.887 30.581C130.887 30.7077 130.83 30.8217 130.716 30.923C130.602 31.0243 130.482 31.075 130.355 31.075C130.051 31.075 129.709 30.8913 129.329 30.524C128.962 30.1567 128.778 29.8463 128.778 29.593ZM128.683 32.291C128.924 32.291 129.152 32.4367 129.367 32.728C129.582 33.0193 129.69 33.3043 129.69 33.583C129.69 33.8617 129.506 34.6977 129.139 36.091C128.772 37.4717 128.309 39.0233 127.752 40.746C127.537 41.3793 127.264 41.696 126.935 41.696C126.758 41.696 126.606 41.6263 126.479 41.487C126.352 41.335 126.289 41.1703 126.289 40.993C126.289 40.803 126.333 40.5117 126.422 40.119C126.523 39.7137 126.663 39.1817 126.84 38.523C127.03 37.8517 127.176 37.307 127.277 36.889C127.391 36.471 127.505 36.0023 127.619 35.483C127.733 34.951 127.822 34.5267 127.885 34.21C127.961 33.8807 128.043 33.5513 128.132 33.222C128.309 32.6013 128.493 32.291 128.683 32.291ZM133.001 39.815C133.001 40.0557 133.141 40.176 133.419 40.176C133.901 40.176 134.483 40.043 135.167 39.777C135.864 39.4983 136.25 39.359 136.326 39.359C136.554 39.359 136.668 39.4793 136.668 39.72C136.668 40.0873 136.288 40.5117 135.528 40.993C134.781 41.4743 134.097 41.715 133.476 41.715C132.868 41.715 132.362 41.5503 131.956 41.221C131.551 40.879 131.348 40.5307 131.348 40.176C131.348 39.8213 131.424 39.3717 131.576 38.827C131.728 38.2697 131.944 37.5413 132.222 36.642C132.514 35.73 132.742 34.9763 132.906 34.381C132.311 34.5203 131.912 34.59 131.709 34.59C131.507 34.59 131.304 34.4887 131.101 34.286C130.911 34.0707 130.816 33.868 130.816 33.678C130.816 33.374 131.64 33.0827 133.286 32.804C133.514 31.7527 133.628 30.8217 133.628 30.011C133.628 29.631 133.755 29.441 134.008 29.441C134.224 29.441 134.49 29.5803 134.806 29.859C135.123 30.125 135.281 30.429 135.281 30.771C135.281 31.113 135.174 31.7147 134.958 32.576C135.68 32.5127 136.257 32.481 136.687 32.481C137.447 32.481 137.827 32.6457 137.827 32.975C137.827 33.165 137.618 33.3233 137.2 33.45C136.795 33.5767 135.934 33.773 134.616 34.039C134.35 35.0397 134.015 36.186 133.609 37.478C133.204 38.7573 133.001 39.5363 133.001 39.815ZM145.65 32.291C145.853 32.291 146.068 32.443 146.296 32.747C146.537 33.0383 146.657 33.3677 146.657 33.735C146.657 33.9883 146.397 34.8497 145.878 36.319C145.359 37.7883 145.004 38.789 144.814 39.321C144.637 39.8403 144.39 40.537 144.073 41.411C143.769 42.2723 143.471 43.1147 143.18 43.938C142.547 45.7493 141.597 46.655 140.33 46.655C139.608 46.655 138.918 46.4333 138.259 45.99C137.6 45.5593 137.271 45.1097 137.271 44.641C137.271 44.4637 137.353 44.2673 137.518 44.052C137.67 43.8367 137.803 43.729 137.917 43.729C138.031 43.729 138.215 43.8683 138.468 44.147C139.203 44.983 139.83 45.401 140.349 45.401C140.742 45.401 141.096 45.0527 141.413 44.356C141.73 43.672 142.027 42.893 142.306 42.019C142.597 41.1577 142.756 40.6827 142.781 40.594C142.819 40.5053 142.857 40.3913 142.895 40.252C142.946 40.1127 142.99 39.986 143.028 39.872C142.129 41.1007 141.242 41.715 140.368 41.715C139.836 41.715 139.342 41.468 138.886 40.974C138.443 40.48 138.221 39.8973 138.221 39.226C138.221 38.5547 138.386 37.649 138.715 36.509C139.044 35.369 139.431 34.381 139.874 33.545C140.317 32.709 140.678 32.291 140.957 32.291C141.185 32.291 141.394 32.3987 141.584 32.614C141.787 32.8167 141.888 33.0257 141.888 33.241C141.888 33.4563 141.723 33.906 141.394 34.59C140.368 36.6927 139.855 38.3267 139.855 39.492C139.855 39.6947 139.918 39.8657 140.045 40.005C140.172 40.1317 140.324 40.195 140.501 40.195C140.957 40.195 141.502 39.7897 142.135 38.979C142.768 38.1683 143.351 37.2057 143.883 36.091C144.326 35.1537 144.789 33.9567 145.27 32.5C145.321 32.3607 145.447 32.291 145.65 32.291ZM163.626 28.339C165.108 28.339 166.229 28.928 166.989 30.106C167.749 31.284 168.129 32.766 168.129 34.552C168.129 36.338 167.686 37.9657 166.799 39.435C165.925 40.8917 164.912 41.62 163.759 41.62C162.948 41.62 162.353 41.164 161.973 40.252C161.593 39.34 161.346 38.0417 161.232 36.357C160.7 37.1043 160.092 37.953 159.408 38.903C158.091 40.727 157.166 41.639 156.634 41.639C156.431 41.639 156.197 41.4743 155.931 41.145C155.665 40.8157 155.532 40.404 155.532 39.91C155.532 39.4033 155.703 37.839 156.045 35.217C156.387 32.5823 156.558 30.5303 156.558 29.061C156.558 28.5923 156.697 28.358 156.976 28.358C157.255 28.358 157.578 28.5227 157.945 28.852C158.325 29.1813 158.515 29.4853 158.515 29.764C158.515 30.03 158.3 31.3663 157.869 33.773C157.451 36.1797 157.191 38.067 157.09 39.435C157.863 38.1303 158.73 36.927 159.693 35.825C160.668 34.7103 161.365 34.153 161.783 34.153C162.214 34.153 162.511 35.103 162.676 37.003C162.739 37.7123 162.86 38.3647 163.037 38.96C163.227 39.5553 163.48 39.853 163.797 39.853C164.506 39.853 165.121 39.283 165.64 38.143C166.172 36.9903 166.438 35.7173 166.438 34.324C166.438 32.7787 166.096 31.588 165.412 30.752C165.057 30.3087 164.665 30.087 164.234 30.087C163.816 30.087 163.455 29.9413 163.151 29.65C162.86 29.3587 162.714 29.1053 162.714 28.89C162.714 28.5227 163.018 28.339 163.626 28.339ZM175.353 35.521C175.353 35.0903 175.284 34.685 175.144 34.305C175.005 33.9123 174.802 33.6273 174.536 33.45C173.662 33.6907 172.909 34.3683 172.275 35.483C171.655 36.585 171.344 37.6237 171.344 38.599C171.344 39.5743 171.585 40.1823 172.066 40.423C172.978 40.2457 173.751 39.625 174.384 38.561C175.03 37.4843 175.353 36.471 175.353 35.521ZM170.356 35.692C170.8 34.704 171.376 33.8933 172.085 33.26C172.807 32.614 173.542 32.291 174.289 32.291C175.049 32.291 175.683 32.614 176.189 33.26C176.696 33.8933 176.949 34.6723 176.949 35.597C176.949 36.509 176.728 37.4463 176.284 38.409C175.841 39.359 175.227 40.1507 174.441 40.784C173.669 41.4047 172.845 41.715 171.971 41.715C171.325 41.715 170.787 41.4173 170.356 40.822C169.926 40.2267 169.71 39.473 169.71 38.561C169.71 37.6363 169.926 36.68 170.356 35.692ZM179.365 34.609L179.308 33.184C179.308 32.5887 179.447 32.291 179.726 32.291C179.966 32.291 180.194 32.4493 180.41 32.766C180.638 33.07 180.752 33.4373 180.752 33.868C180.752 34.286 180.739 34.6027 180.714 34.818C181.816 33.146 182.861 32.31 183.849 32.31C184.469 32.31 184.78 32.462 184.78 32.766C184.78 32.918 184.71 33.0573 184.571 33.184C184.431 33.3107 184.21 33.4563 183.906 33.621C183.234 33.9123 182.664 34.362 182.196 34.97C181.74 35.5653 181.366 36.243 181.075 37.003C180.783 37.763 180.549 38.4027 180.372 38.922C180.207 39.4413 180.08 39.8467 179.992 40.138C179.903 40.4293 179.802 40.7143 179.688 40.993C179.485 41.4997 179.251 41.753 178.985 41.753C178.769 41.753 178.592 41.6327 178.453 41.392C178.326 41.1387 178.263 40.898 178.263 40.67C178.263 40.4293 178.37 39.9607 178.586 39.264C179.105 37.668 179.365 36.1163 179.365 34.609ZM192.913 33.317C192.913 33.431 192.349 34.0263 191.222 35.103C190.804 35.5083 190.417 35.9897 190.063 36.547C189.721 37.0917 189.55 37.592 189.55 38.048C189.55 38.504 189.683 38.9283 189.949 39.321C190.227 39.701 190.525 39.9923 190.842 40.195C191.171 40.385 191.469 40.575 191.735 40.765C192.013 40.955 192.153 41.1133 192.153 41.24C192.153 41.5567 191.899 41.715 191.393 41.715C190.899 41.715 190.303 41.4363 189.607 40.879C188.923 40.309 188.498 39.6757 188.334 38.979C188.27 38.8523 188.22 38.732 188.182 38.618C187.32 39.7833 186.693 40.594 186.301 41.05C185.921 41.4933 185.636 41.715 185.446 41.715C185.256 41.715 185.047 41.5693 184.819 41.278C184.591 40.974 184.477 40.727 184.477 40.537C184.477 40.3343 184.679 39.5173 185.085 38.086C185.503 36.642 185.914 34.913 186.32 32.899C186.738 30.885 186.947 29.0863 186.947 27.503C186.947 27.3003 186.972 27.161 187.023 27.085C187.086 27.009 187.213 26.971 187.403 26.971C187.593 26.971 187.827 27.161 188.106 27.541C188.384 27.9083 188.524 28.2693 188.524 28.624C188.524 29.7513 188.296 31.3283 187.84 33.355C187.384 35.3817 186.839 37.307 186.206 39.131C187.637 37.0917 188.872 35.445 189.911 34.191C190.962 32.9243 191.608 32.291 191.849 32.291C192.102 32.291 192.343 32.4113 192.571 32.652C192.799 32.8927 192.913 33.1143 192.913 33.317ZM198.855 32.291C199.286 32.291 199.691 32.5317 200.071 33.013C200.451 33.4817 200.641 33.8933 200.641 34.248C200.641 34.4633 200.54 34.571 200.337 34.571C200.198 34.571 199.982 34.4633 199.691 34.248C199.4 34.02 199.102 33.906 198.798 33.906C198.494 33.906 198.013 34.0833 197.354 34.438C196.708 34.7927 196.385 35.1663 196.385 35.559C196.385 35.8503 196.968 36.3507 198.133 37.06C198.576 37.3387 198.975 37.6997 199.33 38.143C199.697 38.5737 199.881 39.0423 199.881 39.549C199.881 40.043 199.533 40.5307 198.836 41.012C198.152 41.4807 197.348 41.715 196.423 41.715C195.511 41.715 194.7 41.4933 193.991 41.05C193.294 40.6067 192.946 40.1887 192.946 39.796C192.946 39.6313 192.984 39.5047 193.06 39.416C193.149 39.3147 193.256 39.264 193.383 39.264C193.51 39.264 193.687 39.3463 193.915 39.511C194.599 40.005 195.308 40.252 196.043 40.252C196.79 40.252 197.329 40.1697 197.658 40.005C197.987 39.8277 198.152 39.5997 198.152 39.321C198.152 39.0297 197.968 38.7257 197.601 38.409C197.234 38.0797 196.828 37.7883 196.385 37.535C195.954 37.2817 195.555 36.9713 195.188 36.604C194.821 36.2367 194.637 35.863 194.637 35.483C194.637 34.8117 195.163 34.115 196.214 33.393C197.278 32.6583 198.158 32.291 198.855 32.291ZM203.677 42.114C203.36 42.114 202.999 41.9113 202.594 41.506C202.189 41.088 201.986 40.746 201.986 40.48C201.986 40.2013 202.094 39.929 202.309 39.663C202.537 39.3843 202.765 39.245 202.993 39.245C203.234 39.245 203.506 39.5553 203.81 40.176C204.127 40.7967 204.285 41.2653 204.285 41.582C204.285 41.6833 204.215 41.7973 204.076 41.924C203.937 42.0507 203.804 42.114 203.677 42.114Z" fill="#C61D23"/>
<g clip-path="url(#clip0_356_3528)">
<path d="M30.9966 36.5132V40.9907C31.3744 41.4026 31.9878 42.004 32.8533 42.5719C34.0671 43.3682 34.7347 43.4149 35.6174 44.0679C36.1976 44.4974 36.9516 45.2487 37.5327 46.6358C37.9794 46.3889 38.4534 46.1045 38.9441 45.7765C39.419 45.459 39.8502 45.1407 40.2386 44.832C39.4013 42.4929 37.5323 41.004 36.3656 40.418C35.6359 40.0516 35.0693 39.94 34.1055 39.3713C32.6028 38.4841 31.6117 37.3563 30.9966 36.5132Z" fill="#C61D23"/>
<path d="M30.9966 30.9965V33.2046C31.8127 35.4136 32.9027 36.5467 33.8259 37.2756C35.516 38.6093 36.2307 38.7989 38.1624 39.7253C39.6364 40.4321 41.0107 42.3929 41.2814 43.9744C41.7413 43.5816 42.2192 43.1455 42.706 42.664C43.1469 42.2271 43.5499 41.7976 43.9168 41.3818C43.2567 39.8329 42.4481 38.8448 41.8656 38.2478C39.5526 35.8783 37.2012 35.9828 35.2413 33.5326C34.4684 32.5661 34.0759 31.6019 33.8736 30.9969" fill="#C61D23"/>
<path d="M35.6973 30.9965C36.0209 31.6676 36.5804 32.6221 37.535 33.4916C39.0747 34.8937 40.0654 34.6468 41.5094 35.6332C42.494 36.306 44.1307 37.6918 44.8428 40.2703C45.2308 39.7914 45.6386 39.2368 46.0394 38.6036C46.3873 38.0542 46.6783 37.5269 46.9226 37.0366C46.7365 36.5944 46.4094 35.9356 45.8472 35.2553C44.9922 34.2205 44.0213 33.6512 43.4565 33.3267C42.3873 32.7125 42.0125 32.7504 41.0676 32.0794C40.5002 31.6759 40.0875 31.2734 39.8282 30.9969" fill="#C61D23"/>
<path d="M19.0038 36.5132V40.9907C18.6259 41.4026 18.0126 42.004 17.1471 42.5719C15.9332 43.3682 15.2657 43.4149 14.383 44.0679C13.8027 44.4974 13.0488 45.2487 12.4676 46.6358C12.021 46.3889 11.547 46.1045 11.0563 45.7765C10.5814 45.459 10.1502 45.1407 9.76172 44.832C10.599 42.4929 12.4681 41.004 13.6347 40.418C14.3645 40.0516 14.931 39.94 15.8949 39.3713C17.3975 38.4841 18.3887 37.3563 19.0038 36.5132Z" fill="#C61D23"/>
<path d="M19.0037 30.9965V33.2046C18.1876 35.4136 17.0976 36.5467 16.1743 37.2756C14.4843 38.6093 13.7696 38.7989 11.8379 39.7253C10.3639 40.4321 8.98958 42.3929 8.71886 43.9744C8.25898 43.5816 7.78103 43.1455 7.29425 42.664C6.85334 42.2271 6.45034 41.7976 6.0835 41.3818C6.74355 39.8329 7.55219 38.8448 8.13464 38.2478C10.4477 35.8783 12.7991 35.9828 14.759 33.5326C15.5319 32.5661 15.9243 31.6019 16.1267 30.9969" fill="#C61D23"/>
<path d="M14.3029 30.9965C13.9793 31.6676 13.4198 32.6221 12.4652 33.4916C10.9255 34.8937 9.93478 34.6468 8.49078 35.6332C7.50621 36.306 5.86952 37.6918 5.15744 40.2703C4.76944 39.7914 4.36159 39.2368 3.96079 38.6036C3.61291 38.0542 3.3219 37.5269 3.07764 37.0366C3.2637 36.5944 3.59086 35.9356 4.15303 35.2553C5.00797 34.2205 5.97887 33.6512 6.54369 33.3267C7.61291 32.7125 7.98769 32.7504 8.93257 32.0794C9.50004 31.6759 9.91273 31.2734 10.172 30.9969" fill="#C61D23"/>
<path d="M30.9966 13.4868V9.00926C31.3744 8.59744 31.9878 7.99603 32.8533 7.42813C34.0671 6.63183 34.7347 6.5851 35.6174 5.9321C36.1976 5.50264 36.9516 4.75132 37.5327 3.3642C37.9794 3.61111 38.4534 3.8955 38.9441 4.22354C39.419 4.541 39.8502 4.85935 40.2386 5.16799C39.4013 7.50705 37.5323 8.99603 36.3656 9.58201C35.6359 9.94841 35.0693 10.06 34.1055 10.6287C32.6028 11.5159 31.6117 12.6437 30.9966 13.4868Z" fill="#C61D23"/>
<path d="M30.9966 19.0035V16.7954C31.8127 14.5864 32.9027 13.4533 33.8259 12.7244C35.516 11.3907 36.2307 11.2011 38.1624 10.2747C39.6364 9.5679 41.0107 7.60714 41.2814 6.02557C41.7413 6.41843 42.2192 6.8545 42.706 7.33598C43.1469 7.77293 43.5499 8.20238 43.9168 8.61817C43.2567 10.1671 42.4481 11.1552 41.8656 11.7522C39.5526 14.1217 37.2012 14.0172 35.2413 16.4674C34.4684 17.4339 34.0759 18.3981 33.8736 19.0031" fill="#C61D23"/>
<path d="M35.6973 19.0035C36.0209 18.3324 36.5804 17.3779 37.535 16.5084C39.0747 15.1063 40.0654 15.3532 41.5094 14.3668C42.494 13.694 44.1307 12.3082 44.8428 9.72971C45.2308 10.2085 45.6386 10.7632 46.0394 11.3964C46.3873 11.9458 46.6783 12.4731 46.9226 12.9634C46.7365 13.4056 46.4094 14.0644 45.8472 14.7447C44.9922 15.7795 44.0213 16.3488 43.4565 16.6733C42.3873 17.2875 42.0125 17.2496 41.0676 17.9206C40.5002 18.3241 40.0875 18.7266 39.8282 19.0031" fill="#C61D23"/>
<path d="M19.0038 13.4868V9.00926C18.6259 8.59744 18.0126 7.99603 17.1471 7.42813C15.9332 6.63183 15.2657 6.5851 14.383 5.9321C13.8027 5.50264 13.0488 4.75132 12.4676 3.3642C12.021 3.61111 11.547 3.8955 11.0563 4.22354C10.5814 4.541 10.1502 4.85935 9.76172 5.16799C10.599 7.50705 12.4681 8.99603 13.6347 9.58201C14.3645 9.94841 14.931 10.06 15.8949 10.6287C17.3975 11.5159 18.3887 12.6437 19.0038 13.4868Z" fill="#C61D23"/>
<path d="M19.0037 19.0035V16.7954C18.1876 14.5864 17.0976 13.4533 16.1743 12.7244C14.4843 11.3907 13.7696 11.2011 11.8379 10.2747C10.3639 9.5679 8.98958 7.60714 8.71886 6.02557C8.25898 6.41843 7.78103 6.8545 7.29425 7.33598C6.85334 7.77293 6.45034 8.20238 6.0835 8.61817C6.74355 10.1671 7.55219 11.1552 8.13464 11.7522C10.4477 14.1217 12.7991 14.0172 14.759 16.4674C15.5319 17.4339 15.9243 18.3981 16.1267 19.0031" fill="#C61D23"/>
<path d="M14.3029 19.0035C13.9793 18.3324 13.4198 17.3779 12.4652 16.5084C10.9255 15.1063 9.93478 15.3532 8.49078 14.3668C7.50621 13.694 5.86952 12.3082 5.15744 9.72971C4.76944 10.2085 4.36159 10.7632 3.96079 11.3964C3.61291 11.9458 3.3219 12.4731 3.07764 12.9634C3.2637 13.4056 3.59086 14.0644 4.15303 14.7447C5.00797 15.7795 5.97887 16.3488 6.54369 16.6733C7.61291 17.2875 7.98769 17.2496 8.93257 17.9206C9.50004 18.3241 9.91273 18.7266 10.172 19.0031" fill="#C61D23"/>
<path d="M29.4534 0H20.5469V50H29.4534V0Z" fill="#C61D23"/>
<path d="M0 20.5467L0 29.4533L50 29.4533V20.5467L0 20.5467Z" fill="#C61D23"/>
</g>
<defs>
<clipPath id="clip0_356_3528">
<rect width="50" height="50" fill="white"/>
</clipPath>
</defs>
</svg>
