<svg width="960" height="1080" viewBox="0 0 960 1080" fill="none" xmlns="http://www.w3.org/2000/svg">
<g opacity="0.5" clip-path="url(#clip0_197_482)">
<path d="M659.894 885.396V1019.72C671.23 1032.08 689.629 1050.12 715.595 1067.16C752.01 1091.04 772.037 1092.45 798.518 1112.04C815.926 1124.92 838.545 1147.46 855.979 1189.07C869.378 1181.67 883.598 1173.13 898.32 1163.29C912.566 1153.77 925.502 1144.22 937.156 1134.96C912.037 1064.79 855.965 1020.12 820.965 1002.54C799.074 991.547 782.077 988.201 753.161 971.137C708.082 944.523 678.346 910.687 659.894 885.396Z" fill="white"/>
<path d="M659.894 719.894V786.137C684.378 852.407 717.077 886.402 744.775 908.267C795.476 948.28 816.918 953.968 874.868 981.759C919.087 1002.96 960.317 1061.79 968.439 1109.23C982.235 1097.45 996.574 1084.36 1011.18 1069.92C1024.4 1056.81 1036.49 1043.93 1047.5 1031.45C1027.7 984.987 1003.44 955.344 985.966 937.434C916.574 866.349 846.032 869.484 787.235 795.979C764.048 766.984 752.275 738.055 746.204 719.907" fill="white"/>
<path d="M800.913 719.894C810.622 740.026 827.407 768.664 856.045 794.749C902.235 836.812 931.958 829.405 975.278 858.995C1004.81 879.18 1053.92 920.754 1075.28 998.108C1086.92 983.743 1099.15 967.103 1111.18 948.108C1121.61 931.627 1130.34 915.807 1137.67 901.098C1132.09 887.831 1122.28 868.069 1105.41 847.659C1079.76 816.614 1050.63 799.537 1033.69 789.801C1001.61 771.375 990.37 772.513 962.024 752.381C945 740.278 932.619 728.201 924.841 719.907" fill="white"/>
<path d="M300.106 885.396V1019.72C288.77 1032.08 270.37 1050.12 244.405 1067.16C207.99 1091.04 187.963 1092.45 161.482 1112.04C144.074 1124.92 121.455 1147.46 104.021 1189.07C90.6218 1181.67 76.4022 1173.13 61.68 1163.29C47.4339 1153.77 34.4974 1144.22 22.844 1134.96C47.963 1064.79 104.034 1020.12 139.034 1002.54C160.926 991.547 177.923 988.201 206.839 971.137C251.918 944.523 281.654 910.687 300.106 885.396Z" fill="white"/>
<path d="M300.106 719.894V786.137C275.622 852.407 242.923 886.402 215.225 908.267C164.524 948.28 143.082 953.968 85.1323 981.759C40.9128 1002.96 -0.317398 1061.79 -8.43909 1109.23C-22.2354 1097.45 -36.574 1084.36 -51.1772 1069.92C-64.4047 1056.81 -76.4946 1043.93 -87.4999 1031.45C-67.6984 984.987 -43.4391 955.344 -25.9655 937.434C43.426 866.349 113.968 869.484 172.765 795.979C195.952 766.984 207.725 738.055 213.796 719.907" fill="white"/>
<path d="M159.087 719.894C149.378 740.026 132.593 768.664 103.955 794.749C57.7646 836.812 28.0424 829.405 -15.2777 858.995C-44.8147 879.18 -93.9153 920.754 -115.278 998.108C-126.918 983.743 -139.153 967.103 -151.177 948.108C-161.614 931.627 -170.344 915.807 -177.672 901.098C-172.09 887.831 -162.275 868.069 -145.41 847.659C-119.762 816.614 -90.6348 799.537 -73.6904 789.801C-41.6137 771.375 -30.3703 772.513 -2.02374 752.381C15.0001 740.278 27.381 728.201 35.1588 719.907" fill="white"/>
<path d="M659.894 194.603V60.2776C671.23 47.9231 689.629 29.8808 715.595 12.8438C752.01 -11.0451 772.037 -12.4473 798.518 -32.0372C815.926 -44.9208 838.545 -67.4605 855.979 -109.074C869.378 -101.667 883.598 -93.1351 898.32 -83.2938C912.566 -73.77 925.502 -64.2197 937.156 -54.9605C912.037 15.2115 855.965 59.8808 820.965 77.4602C799.074 88.4522 782.077 91.7988 753.161 108.862C708.082 135.476 678.346 169.312 659.894 194.603Z" fill="white"/>
<path d="M659.894 360.106V293.862C684.378 227.592 717.077 193.598 744.775 171.733C795.476 131.719 816.918 126.032 874.868 98.2406C919.087 77.0369 960.317 18.2142 968.439 -29.2329C982.235 -17.4472 996.574 -4.36518 1011.18 10.0793C1024.4 23.1877 1036.49 36.0713 1047.5 48.5449C1027.7 95.0131 1003.44 124.656 985.966 142.566C916.574 213.651 846.032 210.516 787.235 284.021C764.048 313.016 752.275 341.944 746.204 360.092" fill="white"/>
<path d="M800.913 360.106C810.622 339.974 827.407 311.336 856.045 285.251C902.235 243.188 931.958 250.595 975.278 221.005C1004.81 200.82 1053.92 159.246 1075.28 81.8916C1086.92 96.2567 1099.15 112.897 1111.18 131.892C1121.61 148.373 1130.34 164.193 1137.67 178.902C1132.09 192.169 1122.28 211.931 1105.41 232.341C1079.76 263.386 1050.63 280.463 1033.69 290.198C1001.61 308.624 990.37 307.487 962.024 327.619C945 339.722 932.619 351.799 924.841 360.093" fill="white"/>
<path d="M300.106 194.603V60.2776C288.77 47.9231 270.37 29.8808 244.405 12.8438C207.99 -11.0451 187.963 -12.4473 161.482 -32.0372C144.074 -44.9208 121.455 -67.4605 104.021 -109.074C90.6218 -101.667 76.4022 -93.1351 61.68 -83.2938C47.4339 -73.77 34.4974 -64.2197 22.844 -54.9605C47.963 15.2115 104.034 59.8808 139.034 77.4602C160.926 88.4522 177.923 91.7988 206.839 108.862C251.918 135.476 281.654 169.312 300.106 194.603Z" fill="white"/>
<path d="M300.106 360.106V293.862C275.622 227.592 242.923 193.598 215.225 171.733C164.524 131.719 143.082 126.032 85.1323 98.2406C40.9128 77.0369 -0.317398 18.2142 -8.43909 -29.2329C-22.2354 -17.4472 -36.574 -4.36518 -51.1772 10.0793C-64.4047 23.1877 -76.4946 36.0713 -87.4999 48.5449C-67.6984 95.0131 -43.4391 124.656 -25.9655 142.566C43.426 213.651 113.968 210.516 172.765 284.021C195.952 313.016 207.725 341.944 213.796 360.092" fill="white"/>
<path d="M159.087 360.106C149.378 339.974 132.593 311.336 103.955 285.251C57.7646 243.188 28.0424 250.595 -15.2777 221.005C-44.8147 200.82 -93.9153 159.246 -115.278 81.8916C-126.918 96.2567 -139.153 112.897 -151.177 131.892C-161.614 148.373 -170.344 164.193 -177.672 178.902C-172.09 192.169 -162.275 211.931 -145.41 232.341C-119.762 263.386 -90.6348 280.463 -73.6904 290.198C-41.6137 308.624 -30.3703 307.487 -2.02374 327.619C15.0001 339.722 27.381 351.799 35.1588 360.093" fill="white"/>
<path d="M613.598 -210H346.402V1290H613.598V-210Z" fill="white"/>
<path d="M-270 406.402V673.598L1230 673.598V406.402L-270 406.402Z" fill="white"/>
</g>
<defs>
<clipPath id="clip0_197_482">
<rect width="960" height="1080" fill="white"/>
</clipPath>
</defs>
</svg>
